<?xml version="1.0" standalone="no"?>
<!DOCTYPE svg PUBLIC "-//W3C//DTD SVG 20010904//EN"
 "http://www.w3.org/TR/2001/REC-SVG-20010904/DTD/svg10.dtd">
<svg version="1.0" xmlns="http://www.w3.org/2000/svg"
 width="337.000000pt" height="337.000000pt" viewBox="0 0 337.000000 337.000000"
 preserveAspectRatio="xMidYMid meet">
<metadata>
Created by potrace 1.11, written by Peter Selinger 2001-2013
</metadata>
<g transform="translate(0.000000,337.000000) scale(0.100000,-0.100000)"
fill="#000000" stroke="none">
<path d="M402 3355 c-86 -26 -148 -83 -190 -174 l-26 -56 0 -1441 -1 -1440 34
-68 c23 -48 47 -78 83 -106 93 -74 11 -70 1398 -67 l1245 2 57 28 c64 32 120
89 151 157 21 45 21 50 21 1495 0 1446 0 1450 -21 1496 -28 63 -98 133 -158
161 l-50 23 -1250 2 c-1011 1 -1258 -1 -1293 -12z m2538 -132 c34 -15 66 -47
87 -86 16 -30 17 -134 17 -1452 0 -1353 -1 -1422 -18 -1455 -24 -44 -38 -58
-84 -80 -35 -17 -100 -18 -1267 -17 l-1230 2 -38 25 c-20 14 -46 44 -58 67
-21 43 -21 46 -21 1462 l0 1420 22 39 c23 40 66 73 110 83 51 11 2454 4 2480
-8z"/>
<path d="M765 2930 c-89 -20 -171 -88 -212 -176 l-27 -59 -1 -605 0 -605 28
-57 c37 -75 109 -140 181 -162 52 -17 126 -18 955 -18 1021 0 969 -4 1060 78
54 48 89 105 99 158 3 17 6 299 6 626 -1 583 -1 596 -22 642 -38 84 -119 151
-213 176 -40 11 -1806 12 -1854 2z m1855 -147 c34 -15 66 -47 87 -86 15 -29
17 -85 17 -612 0 -654 3 -630 -77 -683 l-41 -27 -906 -3 -906 -2 -45 23 c-30
16 -52 38 -68 67 l-25 44 0 580 c1 630 -1 610 56 663 53 50 26 49 985 48 622
-1 906 -5 923 -12z"/>
<path d="M613 763 c-12 -2 -27 -11 -33 -19 -7 -8 -18 -14 -25 -14 -18 0 -74
-66 -93 -109 -66 -154 52 -335 218 -335 98 1 190 59 228 144 36 81 16 197 -46
264 -54 57 -161 87 -249 69z m135 -150 c76 -48 48 -175 -42 -190 -71 -11 -126
35 -126 107 0 87 92 132 168 83z"/>
<path d="M1604 745 c-27 -27 -26 -54 4 -87 14 -17 55 -18 596 -18 320 0 586 4
592 8 13 9 34 46 34 62 0 6 -11 22 -25 35 l-24 25 -576 0 -576 0 -25 -25z"/>
</g>
</svg>
